<svg width="10" height="17" viewBox="0 0 10 17" fill="none" xmlns="http://www.w3.org/2000/svg">
<mask id="mask0_1741_11518" style="mask-type:alpha" maskUnits="userSpaceOnUse" x="-7" y="-31" width="24" height="80">
<rect x="17" y="49" width="24" height="80" transform="rotate(-180 17 49)" fill="#D9D9D9"/>
</mask>
<g mask="url(#mask0_1741_11518)">
</g>
<mask id="mask1_1741_11518" style="mask-type:alpha" maskUnits="userSpaceOnUse" x="-7" y="-31" width="24" height="80">
<rect x="17" y="49" width="24" height="80" transform="rotate(-180 17 49)" fill="#D9D9D9"/>
</mask>
<g mask="url(#mask1_1741_11518)">
<path d="M3.62595 8.5L9.58015 14.4462C9.86005 14.7257 10 15.0815 10 15.5135C10 15.9454 9.86005 16.3012 9.58015 16.5807C9.30025 16.8602 8.94402 17 8.51145 17C8.07888 17 7.72265 16.8602 7.44275 16.5807L0.419848 9.56726C0.267176 9.4148 0.159033 9.24963 0.0954206 9.07175C0.0318067 8.89387 7.25322e-07 8.70329 7.43094e-07 8.5C7.60866e-07 8.29671 0.0318068 8.10613 0.0954207 7.92825C0.159034 7.75037 0.267176 7.5852 0.419848 7.43274L7.44275 0.419285C7.72265 0.139763 8.07888 -1.6795e-07 8.51145 -1.30133e-07C8.94402 -9.23167e-08 9.30026 0.139763 9.58015 0.419285C9.86005 0.698807 10 1.05456 10 1.48655C10 1.91854 9.86005 2.27429 9.58015 2.55381L3.62595 8.5Z" fill="#A1A1AA"/>
</g>
</svg>
