<svg width="132" height="32" viewBox="0 0 132 32" fill="none" xmlns="http://www.w3.org/2000/svg">
<g clip-path="url(#clip0_62_2000)">
<path d="M10.1917 8.92358H7.17322L10.189 13.9821V13.9768L13.5684 8.92358H10.1917Z" fill="#002169"/>
<path d="M20.5866 14.9171V19.4588H16.0281L10.189 25.455H26.6021V8.92358L20.5866 14.9171Z" fill="#52B9E9"/>
<path d="M10.189 13.9821L16.0281 19.4588V14.9171H20.5866L13.5684 8.92358L10.189 13.9768V13.9821Z" fill="#F389A5"/>
<path d="M13.5684 0H7.17322V8.92367H13.5684V0Z" fill="#3BB149"/>
<path d="M0 14.9171L3.70558 19.4002L10.189 13.9821L7.17322 8.92358L0 14.9171Z" fill="#DC1250"/>
<path d="M20.5866 14.9172H16.0281V19.459H20.5866V14.9172Z" fill="white"/>
<path d="M13.5684 8.92358L20.5866 14.9171L26.6021 8.92358H13.5684Z" fill="#002169"/>
<path d="M10.189 13.9822V25.4551L16.0281 19.4589L10.189 13.9822Z" fill="#002169"/>
<path d="M126.145 21.2756H123.035V27.6021H132V24.5148H126.145V21.2756Z" fill="#002169"/>
<path d="M114.825 19.4351H105.788V22.4878H114.825V19.4351Z" fill="#002169"/>
<path d="M111.849 7.17896H108.756V8.92639H105.788V12.019H106.585C106.181 12.6877 105.965 13.4415 105.965 14.23C105.965 16.6167 107.914 18.5613 110.304 18.5613C112.694 18.5613 114.651 16.6194 114.651 14.23C114.651 13.4548 114.432 12.6956 114.026 12.019H114.825V8.92639H111.849V7.17896ZM110.307 15.7324C109.467 15.7324 108.809 15.0717 108.809 14.23C108.809 13.3882 109.483 12.7329 110.307 12.7329C111.13 12.7329 111.809 13.4042 111.809 14.23C111.809 15.0558 111.135 15.7324 110.307 15.7324Z" fill="#002169"/>
<path d="M125.934 8.92651V12.0165H128.893V17.8555H132V8.92651H125.934Z" fill="#002169"/>
<path d="M98.9519 15.9136L94.9736 12.0165H97.5563V8.92651H88.5196V12.0165H91.1022L87.1026 15.9136L89.3109 18.1086L93.0406 14.3074L96.7702 18.1086L98.9519 15.9136Z" fill="#002169"/>
<path d="M103.23 8.92651H100.139V17.8502H103.23V8.92651Z" fill="#002169"/>
<path d="M39.3765 12.0165H42.5874V20.9242H45.6701V8.92651H39.3765V12.0165Z" fill="#002169"/>
<path d="M57.0194 8.92651H48.079V17.8289H57.0194V8.92651ZM51.175 14.7442V12.0032H53.9207V14.7442H51.175Z" fill="#002169"/>
<path d="M62.2703 8.92651H59.1663V17.8422H62.2703V8.92651Z" fill="#002169"/>
<path d="M127.401 16.7207H118.448V22.9886H121.549V19.7627H127.401V16.7207Z" fill="#002169"/>
<path d="M76.7104 22.8714H79.8037V19.7627H82.6377V22.8714H85.7283V16.7207H76.7104V22.8714Z" fill="#002169"/>
<path d="M41.764 18.7212L37.2857 13.9211V8.92651H33.8181V13.9211L29.3372 18.7212L31.6178 20.9428L35.5533 16.75L39.4834 20.9428L41.764 18.7212Z" fill="#002169"/>
<path d="M97.3771 19.1367H94.2892V25.4552H103.232V22.3626H97.3771V19.1367Z" fill="#002169"/>
<path d="M56.4179 19.1367H53.3139V25.4552H62.2704V22.3626H56.4179V19.1367Z" fill="#002169"/>
<path d="M81.218 15.9294C83.6082 15.9294 85.5572 13.9928 85.5572 11.6114C85.5572 9.22998 83.6082 7.28809 81.218 7.28809C78.8278 7.28809 76.8761 9.22732 76.8761 11.6114C76.8761 13.9955 78.8278 15.9294 81.218 15.9294ZM81.218 10.1703C82.0094 10.1703 82.6564 10.8176 82.6564 11.6114C82.6564 12.4052 82.0094 13.0445 81.218 13.0445C80.4266 13.0445 79.7823 12.3866 79.7823 11.6114C79.7823 10.8362 80.4373 10.1703 81.218 10.1703Z" fill="#002169"/>
<path d="M125.129 11.6194C125.129 9.23265 123.183 7.28809 120.784 7.28809C118.386 7.28809 116.445 9.23265 116.445 11.6194C116.445 14.0061 118.394 15.9507 120.784 15.9507C123.174 15.9507 125.129 14.0088 125.129 11.6194ZM120.784 10.1969C121.592 10.1969 122.225 10.8203 122.225 11.6194C122.225 12.4185 121.581 13.0419 120.784 13.0419C119.988 13.0419 119.349 12.4052 119.349 11.6194C119.349 10.8336 119.993 10.1969 120.784 10.1969Z" fill="#002169"/>
<path d="M110.304 23.3481C107.914 23.3481 105.965 25.2874 105.965 27.6715C105.965 30.0555 107.914 31.9974 110.304 31.9974C112.694 31.9974 114.648 30.0529 114.648 27.6715C114.648 25.29 112.699 23.3481 110.304 23.3481ZM110.304 29.1072C109.518 29.1072 108.874 28.4626 108.874 27.6715C108.874 26.8803 109.518 26.2463 110.304 26.2463C111.09 26.2463 111.737 26.8856 111.737 27.6715C111.737 28.4573 111.095 29.1072 110.304 29.1072Z" fill="#002169"/>
<path d="M81.218 23.3562C78.8278 23.3562 76.8761 25.2954 76.8761 27.6795C76.8761 30.0636 78.8278 32.0002 81.218 32.0002C83.6082 32.0002 85.5572 30.0636 85.5572 27.6795C85.5572 25.2954 83.6082 23.3562 81.218 23.3562ZM81.218 29.1153C80.4346 29.1153 79.7823 28.4547 79.7823 27.6795C79.7823 26.9044 80.4373 26.2437 81.218 26.2437C81.9987 26.2437 82.6564 26.8884 82.6564 27.6795C82.6564 28.4707 82.0094 29.1153 81.218 29.1153Z" fill="#002169"/>
<path d="M70.8392 15.2503H73.9486V8.92651H64.984V12.0165H70.8392V15.2503Z" fill="#002169"/>
<path d="M73.9486 16.7207H64.984V19.7627H73.9486V16.7207Z" fill="#002169"/>
<path d="M73.9486 30.242V21.3184H64.984V30.242H73.9486ZM68.0988 24.419H70.8338V27.144H68.0988V24.419Z" fill="#002169"/>
</g>
<defs>
<clipPath id="clip0_62_2000">
<rect width="132" height="32" fill="white"/>
</clipPath>
</defs>
</svg>
