<svg width="40" height="40" viewBox="0 0 40 40" fill="none" xmlns="http://www.w3.org/2000/svg">
<path d="M0 8C0 3.58172 3.58172 0 8 0H32C36.4183 0 40 3.58172 40 8V32C40 36.4183 36.4183 40 32 40H8C3.58172 40 0 36.4183 0 32V8Z" fill="white" fill-opacity="0.01"/>
<path fill-rule="evenodd" clip-rule="evenodd" d="M19.4394 13.272C19.7561 12.9887 20.24 12.9888 20.5566 13.272L27.5234 19.5474C27.8149 19.7974 27.6313 20.272 27.248 20.272H25.831V26.106C25.8309 26.5642 25.4563 26.939 24.998 26.939H22.498C22.0398 26.9389 21.6651 26.5642 21.665 26.106V21.939H18.331V26.106C18.3309 26.5642 17.9563 26.939 17.498 26.939H14.998C14.5398 26.9389 14.1651 26.5642 14.165 26.106V20.272H12.748C12.3648 20.2719 12.1903 19.7974 12.4736 19.5474L19.4394 13.272Z" fill="black"/>
</svg>
