<svg width="16" height="16" viewBox="0 0 16 16" fill="none" xmlns="http://www.w3.org/2000/svg">
<mask id="mask0_1193_12051" style="mask-type:alpha" maskUnits="userSpaceOnUse" x="-4" y="-2" width="22" height="22">
<rect x="-3.09677" y="-1.54839" width="20.6452" height="20.6452" fill="#D9D9D9"/>
</mask>
<g mask="url(#mask0_1193_12051)">
<path d="M10.1505 14.9677L6.51613 11.3118L7.6129 10.2151L10.1505 12.7742L14.9032 8.02151L16 9.11828L10.1505 14.9677ZM14.4516 6.70968H12.9032V3.09677H11.3548V5.67742H3.09677V3.09677H1.54839V14.4516H6.19355V16H1.54839C1.12258 16 0.758064 15.8484 0.454839 15.5452C0.151613 15.2419 0 14.8774 0 14.4516V3.09677C0 2.67097 0.151613 2.30645 0.454839 2.00323C0.758064 1.7 1.12258 1.54839 1.54839 1.54839H5.22581C5.3405 1.10394 5.58065 0.734767 5.94624 0.44086C6.31183 0.146953 6.73835 0 7.22581 0C7.71326 0 8.13979 0.146953 8.50538 0.44086C8.87097 0.734767 9.11111 1.10394 9.22581 1.54839H12.9032C13.329 1.54839 13.6935 1.7 13.9968 2.00323C14.3 2.30645 14.4516 2.67097 14.4516 3.09677V6.70968ZM7.77419 2.87548C7.92473 2.72796 8 2.54516 8 2.3271C8 2.10903 7.92624 1.92473 7.77871 1.77419C7.63118 1.62366 7.44839 1.54839 7.23032 1.54839C7.01226 1.54839 6.82796 1.62215 6.67742 1.76968C6.52688 1.9172 6.45161 2.1 6.45161 2.31806C6.45161 2.53613 6.52538 2.72043 6.6729 2.87097C6.82043 3.02151 7.00323 3.09677 7.22129 3.09677C7.43936 3.09677 7.62366 3.02301 7.77419 2.87548Z" fill="#03369C"/>
</g>
</svg>
