<svg width="40" height="40" viewBox="0 0 40 40" fill="none" xmlns="http://www.w3.org/2000/svg">
<path d="M0 8C0 3.58172 3.58172 0 8 0H32C36.4183 0 40 3.58172 40 8V32C40 36.4183 36.4183 40 32 40H8C3.58172 40 0 36.4183 0 32V8Z" fill="white" fill-opacity="0.01"/>
<path d="M24.167 11.667C24.6252 11.6672 25 12.0418 25 12.5V13.333H25.833C26.7497 13.333 27.5 14.0833 27.5 15V26.667C27.4998 27.5835 26.7496 28.333 25.833 28.333H14.167C13.2421 28.333 12.5002 27.5835 12.5 26.667L12.5088 15C12.5088 14.0833 13.242 13.333 14.167 13.333H15V12.5C15 12.0418 15.3748 11.6672 15.833 11.667C16.2913 11.667 16.667 12.0417 16.667 12.5V13.333H23.333V12.5C23.333 12.0417 23.7087 11.667 24.167 11.667ZM14.167 17.5V25.833C14.167 26.2913 14.5417 26.667 15 26.667H25C25.4583 26.667 25.833 26.2913 25.833 25.833V17.5H14.167ZM19.167 19.167C19.6252 19.1672 20 19.5418 20 20V22.5C20 22.9582 19.6252 23.3328 19.167 23.333H16.667C16.2087 23.333 15.833 22.9583 15.833 22.5V20C15.833 19.5417 16.2087 19.167 16.667 19.167H19.167Z" fill="black"/>
</svg>
