<svg width="7" height="12" viewBox="0 0 7 12" fill="none" xmlns="http://www.w3.org/2000/svg">
<mask id="mask0_1219_12938" style="mask-type:alpha" maskUnits="userSpaceOnUse" x="-10" y="-7" width="27" height="26">
<rect x="-9.0038" y="-6.86635" width="25.6487" height="25.6487" fill="#D9D9D9"/>
</mask>
<g mask="url(#mask0_1219_12938)">
<path d="M4.4618 5.95797L0.293891 1.79006C0.0979636 1.59414 0 1.34477 0 1.04198C0 0.73918 0.0979636 0.489818 0.293891 0.293891C0.489818 0.0979636 0.73918 0 1.04198 0C1.34477 0 1.59414 0.0979636 1.79006 0.293891L6.70606 5.20988C6.81293 5.31675 6.88863 5.43253 6.93315 5.55721C6.97768 5.68189 6.99995 5.81548 6.99995 5.95797C6.99995 6.10046 6.97768 6.23405 6.93315 6.35873C6.88863 6.48341 6.81293 6.59919 6.70606 6.70606L1.79006 11.6221C1.59414 11.818 1.34477 11.9159 1.04198 11.9159C0.73918 11.9159 0.489818 11.818 0.293891 11.6221C0.0979636 11.4261 0 11.1768 0 10.874C0 10.5712 0.0979636 10.3218 0.293891 10.1259L4.4618 5.95797Z" fill="black"/>
</g>
</svg>
