<svg width="24" height="24" viewBox="0 0 24 24" fill="none" xmlns="http://www.w3.org/2000/svg">
<mask id="mask0_1640_145844" style="mask-type:alpha" maskUnits="userSpaceOnUse" x="0" y="0" width="24" height="24">
<rect width="24" height="24" fill="#D9D9D9"/>
</mask>
<g mask="url(#mask0_1640_145844)">
<path d="M3.16727 12.0949L6.79431 8.46786C6.99865 8.26352 7.23705 8.16561 7.5095 8.17412C7.78196 8.18263 8.02035 8.28906 8.22469 8.4934C8.41201 8.69774 8.50566 8.93614 8.50566 9.20859C8.50566 9.48105 8.41201 9.71944 8.22469 9.92378L3.90801 14.266C3.70367 14.4704 3.46527 14.5725 3.19282 14.5725C2.92036 14.5725 2.68197 14.4704 2.47763 14.266L0.280968 12.0694C0.0936559 11.882 0 11.6436 0 11.3542C0 11.0647 0.0936559 10.8263 0.280968 10.639C0.46828 10.4517 0.706677 10.358 0.996159 10.358C1.28564 10.358 1.52404 10.4517 1.71135 10.639L3.16727 12.0949ZM3.16727 3.92129L6.79431 0.29425C6.99865 0.0899097 7.23705 -0.00800333 7.5095 0.000510851C7.78196 0.00902503 8.02035 0.115452 8.22469 0.319792C8.41201 0.524133 8.50566 0.76253 8.50566 1.03498C8.50566 1.30744 8.41201 1.54583 8.22469 1.75017L3.90801 6.0924C3.70367 6.29674 3.46527 6.39891 3.19282 6.39891C2.92036 6.39891 2.68197 6.29674 2.47763 6.0924L0.280968 3.89575C0.0936559 3.70843 0 3.47004 0 3.18056C0 2.89107 0.0936559 2.65268 0.280968 2.46536C0.46828 2.27805 0.706677 2.1844 0.996159 2.1844C1.28564 2.1844 1.52404 2.27805 1.71135 2.46536L3.16727 3.92129ZM11.8262 12.9378C11.5367 12.9378 11.2941 12.8399 11.0982 12.6441C10.9024 12.4482 10.8045 12.2056 10.8045 11.9161C10.8045 11.6266 10.9024 11.384 11.0982 11.1881C11.2941 10.9923 11.5367 10.8944 11.8262 10.8944H18.9781C19.2676 10.8944 19.5102 10.9923 19.7061 11.1881C19.9019 11.384 19.9998 11.6266 19.9998 11.9161C19.9998 12.2056 19.9019 12.4482 19.7061 12.6441C19.5102 12.8399 19.2676 12.9378 18.9781 12.9378H11.8262ZM11.8262 4.76419C11.5367 4.76419 11.2941 4.66628 11.0982 4.47045C10.9024 4.27463 10.8045 4.03197 10.8045 3.74249C10.8045 3.45301 10.9024 3.21036 11.0982 3.01453C11.2941 2.8187 11.5367 2.72079 11.8262 2.72079H18.9781C19.2676 2.72079 19.5102 2.8187 19.7061 3.01453C19.9019 3.21036 19.9998 3.45301 19.9998 3.74249C19.9998 4.03197 19.9019 4.27463 19.7061 4.47045C19.5102 4.66628 19.2676 4.76419 18.9781 4.76419H11.8262Z" fill="black" transform="matrix(0.979 0 0 0.979 2.42 4.34)"/>
</g>
</svg>
