<svg width="24" height="24" viewBox="0 0 24 24" fill="none" xmlns="http://www.w3.org/2000/svg">
<mask id="mask0_62_1813" style="mask-type:alpha" maskUnits="userSpaceOnUse" x="0" y="0" width="24" height="24">
<rect width="24" height="24" fill="#D9D9D9"/>
</mask>
<g mask="url(#mask0_62_1813)">
<path d="M6 16C5.45 16 4.97916 15.8042 4.5875 15.4125C4.19583 15.0208 4 14.55 4 14C4 13.45 4.19583 12.9792 4.5875 12.5875C4.97916 12.1958 5.45 12 6 12C6.55 12 7.02083 12.1958 7.4125 12.5875C7.80416 12.9792 8 13.45 8 14C8 14.55 7.80416 15.0208 7.4125 15.4125C7.02083 15.8042 6.55 16 6 16ZM18 16C17.45 16 16.9792 15.8042 16.5875 15.4125C16.1958 15.0208 16 14.55 16 14C16 13.45 16.1958 12.9792 16.5875 12.5875C16.9792 12.1958 17.45 12 18 12C18.55 12 19.0208 12.1958 19.4125 12.5875C19.8042 12.9792 20 13.45 20 14C20 14.55 19.8042 15.0208 19.4125 15.4125C19.0208 15.8042 18.55 16 18 16ZM12 15C11.3 15 10.7083 14.7583 10.225 14.275C9.74166 13.7917 9.5 13.2 9.5 12.5C9.5 11.8 9.74166 11.2083 10.225 10.725C10.7083 10.2417 11.3 10 12 10C12.7 10 13.2917 10.2417 13.775 10.725C14.2583 11.2083 14.5 11.8 14.5 12.5C14.5 13.2 14.2583 13.7917 13.775 14.275C13.2917 14.7583 12.7 15 12 15ZM7.1 21C7.21666 20.4167 7.425 19.8875 7.725 19.4125C8.025 18.9375 8.39166 18.5167 8.825 18.15C9.25833 17.7833 9.74583 17.5 10.2875 17.3C10.8292 17.1 11.4 17 12 17C12.6 17 13.1708 17.1 13.7125 17.3C14.2542 17.5 14.7417 17.7833 15.175 18.15C15.6083 18.5167 15.975 18.9375 16.275 19.4125C16.575 19.8875 16.7833 20.4167 16.9 21H7.1ZM3.275 21C2.925 21 2.625 20.8833 2.375 20.65C2.125 20.4167 2 20.15 2 19.85C2 19.2 2.39583 18.5625 3.1875 17.9375C3.97916 17.3125 4.89166 17 5.925 17C6.20833 17 6.48333 17.025 6.75 17.075C7.01666 17.125 7.275 17.2 7.525 17.3C7.025 17.7833 6.60833 18.3375 6.275 18.9625C5.94166 19.5875 5.71666 20.2667 5.6 21H3.275ZM18.4 21C18.2833 20.2667 18.0583 19.5875 17.725 18.9625C17.3917 18.3375 16.975 17.7833 16.475 17.3C16.725 17.2 16.9792 17.125 17.2375 17.075C17.4958 17.025 17.7667 17 18.05 17C19.0833 17 20 17.3125 20.8 17.9375C21.6 18.5625 22 19.2 22 19.85C22 20.1667 21.875 20.4375 21.625 20.6625C21.375 20.8875 21.0667 21 20.7 21H18.4ZM1.6 11.2C1.43333 10.9667 1.36666 10.7167 1.4 10.45C1.43333 10.1833 1.56666 9.96667 1.8 9.8L10.775 2.925C11.1417 2.64167 11.55 2.5 12 2.5C12.45 2.5 12.8583 2.64167 13.225 2.925L16 5.05V4.5C16 4.08333 16.1458 3.72917 16.4375 3.4375C16.7292 3.14583 17.0833 3 17.5 3C17.9167 3 18.2708 3.14583 18.5625 3.4375C18.8542 3.72917 19 4.08333 19 4.5V7.35L22.2 9.8C22.4167 9.96667 22.5458 10.1833 22.5875 10.45C22.6292 10.7167 22.5667 10.9667 22.4 11.2C22.2333 11.4333 22.0167 11.5667 21.75 11.6C21.4833 11.6333 21.2333 11.5667 21 11.4L12 4.525L3 11.4C2.76666 11.5667 2.51666 11.6333 2.25 11.6C1.98333 11.5667 1.76666 11.4333 1.6 11.2Z" fill="black"/>
</g>
</svg>
