<svg width="40" height="40" viewBox="0 0 40 40" fill="none" xmlns="http://www.w3.org/2000/svg">
<path d="M0 8C0 3.58172 3.58172 0 8 0H32C36.4183 0 40 3.58172 40 8V32C40 36.4183 36.4183 40 32 40H8C3.58172 40 0 36.4183 0 32V8Z" fill="white" fill-opacity="0.01"/>
<path fill-rule="evenodd" clip-rule="evenodd" d="M19.4396 13.2725C19.7562 12.9892 20.2401 12.9893 20.5568 13.2725L27.5236 19.5479C27.815 19.7979 27.6314 20.2725 27.2482 20.2725H25.8312V26.1065C25.8311 26.5647 25.4564 26.9395 24.9982 26.9395H22.4982C22.0399 26.9394 21.6653 26.5647 21.6652 26.1065V21.9395H18.3312V26.1065C18.3311 26.5647 17.9564 26.9395 17.4982 26.9395H14.9982C14.5399 26.9394 14.1653 26.5647 14.1652 26.1065V20.2725H12.7482C12.3649 20.2724 12.1904 19.7979 12.4737 19.5479L19.4396 13.2725Z" fill="#334155"/>
</svg>
