<svg width="14" height="14" viewBox="0 0 14 14" fill="none" xmlns="http://www.w3.org/2000/svg">
<path d="M10.625 10.958C10.9917 10.958 11.292 11.2583 11.292 11.625C11.292 11.9917 10.9917 12.292 10.625 12.292H2.625C2.25833 12.292 1.95801 11.9917 1.95801 11.625C1.95801 11.2583 2.25833 10.958 2.625 10.958H10.625ZM7.95801 0.958008C8.32467 0.958008 8.625 1.25833 8.625 1.625V4.95801H9.68457C10.2779 4.95801 10.5714 5.67863 10.1514 6.09863L7.0918 9.1582C6.8318 9.4182 6.41137 9.4182 6.15137 9.1582L3.0918 6.09863C2.6718 5.67863 2.9721 4.95801 3.56543 4.95801H4.625V1.625C4.625 1.25833 4.92533 0.958008 5.29199 0.958008H7.95801Z" fill="#0F172A"/>
</svg>
