<svg width="19" height="19" viewBox="0 0 19 19" fill="none" xmlns="http://www.w3.org/2000/svg">
<mask id="mask0_553_7805" style="mask-type:alpha" maskUnits="userSpaceOnUse" x="-2" y="-2" width="21" height="22">
<rect x="-1.67584" y="-1.04724" width="20.1101" height="20.1101" fill="#D9D9D9"/>
</mask>
<g mask="url(#mask0_553_7805)">
<path d="M2.51376 12.3593V8.16972C2.51376 7.93231 2.59406 7.7333 2.75466 7.5727C2.91526 7.4121 3.11427 7.3318 3.35168 7.3318C3.58909 7.3318 3.7881 7.4121 3.9487 7.5727C4.1093 7.7333 4.1896 7.93231 4.1896 8.16972V12.3593C4.1896 12.5967 4.1093 12.7957 3.9487 12.9563C3.7881 13.1169 3.58909 13.1972 3.35168 13.1972C3.11427 13.1972 2.91526 13.1169 2.75466 12.9563C2.59406 12.7957 2.51376 12.5967 2.51376 12.3593ZM7.54128 12.3593V8.16972C7.54128 7.93231 7.62158 7.7333 7.78218 7.5727C7.94278 7.4121 8.14179 7.3318 8.3792 7.3318C8.61661 7.3318 8.81562 7.4121 8.97622 7.5727C9.13682 7.7333 9.21712 7.93231 9.21712 8.16972V12.3593C9.21712 12.5967 9.13682 12.7957 8.97622 12.9563C8.81562 13.1169 8.61661 13.1972 8.3792 13.1972C8.14179 13.1972 7.94278 13.1169 7.78218 12.9563C7.62158 12.7957 7.54128 12.5967 7.54128 12.3593ZM15.9205 5.65596H0.754128C0.544648 5.65596 0.36659 5.58264 0.219954 5.43601C0.073318 5.28937 0 5.11131 0 4.90183V4.44098C0 4.28736 0.0384047 4.15469 0.115214 4.04296C0.192023 3.93124 0.293272 3.84047 0.41896 3.77064L7.62507 0.167584C7.86248 0.0558613 8.11386 0 8.3792 0C8.64454 0 8.89592 0.0558613 9.13333 0.167584L16.2975 3.74969C16.4512 3.81952 16.5664 3.92426 16.6432 4.06391C16.72 4.20357 16.7584 4.3502 16.7584 4.50382V4.81804C16.7584 5.05545 16.6781 5.25446 16.5175 5.41506C16.3569 5.57566 16.1579 5.65596 15.9205 5.65596ZM3.74969 3.98012H13.0087L8.3792 1.67584L3.74969 3.98012ZM0.83792 16.5489C0.600509 16.5489 0.401503 16.4686 0.240902 16.308C0.0803007 16.1474 0 15.9484 0 15.711C0 15.4736 0.0803007 15.2746 0.240902 15.114C0.401503 14.9534 0.600509 14.8731 0.83792 14.8731H9.25902C9.49643 14.8731 9.69543 14.9534 9.85603 15.114C10.0166 15.2746 10.0969 15.4736 10.0969 15.711C10.0969 15.9484 10.0166 16.1474 9.85603 16.308C9.69543 16.4686 9.49643 16.5489 9.25902 16.5489H0.83792ZM12.8097 9.39518C12.6491 9.23458 12.5688 9.03557 12.5688 8.79816V8.16972C12.5688 7.93231 12.6491 7.7333 12.8097 7.5727C12.9703 7.4121 13.1693 7.3318 13.4067 7.3318C13.6441 7.3318 13.8431 7.4121 14.0037 7.5727C14.1643 7.7333 14.2446 7.93231 14.2446 8.16972V8.79816C14.2446 9.03557 14.1643 9.23458 14.0037 9.39518C13.8431 9.55578 13.6441 9.63608 13.4067 9.63608C13.1693 9.63608 12.9703 9.55578 12.8097 9.39518ZM11.7309 14.496V12.883C11.7309 12.7294 11.7693 12.5828 11.8461 12.4431C11.9229 12.3035 12.0381 12.1987 12.1917 12.1289L14.7055 10.872C14.8172 10.8022 14.9429 10.7673 15.0826 10.7673C15.2222 10.7673 15.3479 10.8022 15.4596 10.872L17.9734 12.1289C18.127 12.1987 18.2422 12.3035 18.319 12.4431C18.3958 12.5828 18.4342 12.7294 18.4342 12.883V14.496C18.4342 15.5434 18.1619 16.4477 17.6173 17.2088C17.0726 17.9699 16.3325 18.546 15.3968 18.937C15.3689 18.951 15.2641 18.9719 15.0826 18.9998C15.0546 18.9998 14.9499 18.9789 14.7683 18.937C13.8327 18.546 13.0925 17.9699 12.5479 17.2088C12.0032 16.4477 11.7309 15.5434 11.7309 14.496ZM14.4751 14.7683L14.098 14.3913C13.9723 14.2656 13.8257 14.2062 13.6581 14.2132C13.4905 14.2202 13.3439 14.2865 13.2182 14.4122C13.0925 14.5379 13.0297 14.6845 13.0297 14.8521C13.0297 15.0197 13.0925 15.1664 13.2182 15.292L13.8885 15.9624C14.0561 16.13 14.2516 16.2138 14.4751 16.2138C14.6985 16.2138 14.894 16.13 15.0616 15.9624L16.9469 14.098C17.0726 13.9723 17.1355 13.8257 17.1355 13.6581C17.1355 13.4905 17.0726 13.3439 16.9469 13.2182C16.8212 13.0925 16.6746 13.0331 16.507 13.0401C16.3394 13.0471 16.1928 13.1065 16.0671 13.2182L14.4751 14.7683Z" fill="#03369C"/>
</g>
</svg>
