<svg width="40" height="40" viewBox="0 0 40 40" fill="none" xmlns="http://www.w3.org/2000/svg">
<path d="M0 8C0 3.58172 3.58172 0 8 0H32C36.4183 0 40 3.58172 40 8V32C40 36.4183 36.4183 40 32 40H8C3.58172 40 0 36.4183 0 32V8Z" fill="white" fill-opacity="0.01"/>
<path fill-rule="evenodd" clip-rule="evenodd" d="M19.5 10.8497C23.8666 10.5664 27.4999 14.0249 27.5 18.3331V26.6662C27.5 28.0495 26.3833 29.1662 25 29.1662H20.833C20.3748 29.166 20 28.7914 20 28.3331C20.0001 27.875 20.3749 27.5003 20.833 27.5001H25.833V26.6662H24.167C23.2504 26.6662 22.5001 25.9167 22.5 25.0001V21.6662C22.5002 20.7497 23.2505 20.0001 24.167 20.0001H25.833V18.3331C25.8329 15.0499 23.1334 12.4086 19.8252 12.5001C16.6335 12.5918 14.167 15.3753 14.167 18.5753V20.0001H15.833C16.7495 20.0001 17.4998 20.7497 17.5 21.6662V25.0001C17.4999 25.9167 16.7496 26.6662 15.833 26.6662H15C13.6167 26.6662 12.5 25.5495 12.5 24.1662V18.5919C12.5 14.6003 15.5167 11.1081 19.5 10.8497Z" fill="#334155"/>
</svg>
