<svg width="40" height="40" viewBox="0 0 40 40" fill="none" xmlns="http://www.w3.org/2000/svg">
<path d="M0 8C0 3.58172 3.58172 0 8 0H32C36.4183 0 40 3.58172 40 8V32C40 36.4183 36.4183 40 32 40H8C3.58172 40 0 36.4183 0 32V8Z" fill="white" fill-opacity="0.01"/>
<path fill-rule="evenodd" clip-rule="evenodd" d="M19.5 10.8493C23.8666 10.5659 27.4999 14.0244 27.5 18.3327V26.6657C27.5 28.049 26.3833 29.1657 25 29.1657H20.833C20.3748 29.1655 20 28.7909 20 28.3327C20.0001 27.8745 20.3749 27.4998 20.833 27.4996H25.833V26.6657H24.167C23.2504 26.6657 22.5001 25.9162 22.5 24.9996V21.6657C22.5002 20.7492 23.2505 19.9996 24.167 19.9996H25.833V18.3327C25.8329 15.0494 23.1334 12.4081 19.8252 12.4996C16.6335 12.5913 14.167 15.3748 14.167 18.5748V19.9996H15.833C16.7495 19.9996 17.4998 20.7492 17.5 21.6657V24.9996C17.4999 25.9162 16.7496 26.6657 15.833 26.6657H15C13.6167 26.6657 12.5 25.549 12.5 24.1657V18.5914C12.5 14.5998 15.5167 11.1076 19.5 10.8493Z" fill="black"/>
</svg>
