<svg width="16" height="15" viewBox="0 0 16 15" fill="none" xmlns="http://www.w3.org/2000/svg">
<mask id="mask0_1193_12088" style="mask-type:alpha" maskUnits="userSpaceOnUse" x="-2" y="-2" width="20" height="20">
<rect x="-2" y="-2" width="20" height="20" fill="#D9D9D9"/>
</mask>
<g mask="url(#mask0_1193_12088)">
<path d="M1.5 12V13.5H14.5V12H1.5ZM1.5 3H3.64583C3.60417 2.875 3.57292 2.75 3.55208 2.625C3.53125 2.5 3.52083 2.375 3.52083 2.25C3.52083 1.625 3.73958 1.09375 4.17708 0.65625C4.61458 0.21875 5.16667 0 5.83333 0C6.15278 0 6.45833 0.0659722 6.75 0.197917C7.04167 0.329861 7.28472 0.527778 7.47917 0.791667L8 1.52083L8.54167 0.8125C8.73611 0.5625 8.97208 0.364583 9.24958 0.21875C9.52694 0.0729167 9.8257 0 10.1458 0C10.8542 0 11.4201 0.215278 11.8438 0.645833C12.2674 1.07639 12.4792 1.61111 12.4792 2.25C12.4792 2.375 12.4688 2.5 12.4479 2.625C12.4271 2.75 12.3958 2.875 12.3542 3H14.5C14.9125 3 15.2656 3.14688 15.5594 3.44063C15.8531 3.73438 16 4.0875 16 4.5V13.5C16 13.9125 15.8531 14.2656 15.5594 14.5594C15.2656 14.8531 14.9125 15 14.5 15H1.5C1.09722 15 0.746528 14.8531 0.447917 14.5594C0.149306 14.2656 0 13.9125 0 13.5V4.5C0 4.0875 0.149306 3.73438 0.447917 3.44063C0.746528 3.14688 1.09722 3 1.5 3ZM1.5 10H14.5V4.5H10.1875L12.0208 6.97917L10.8125 7.875L8.01042 4.04167L5.20833 7.875L4 6.97917L5.8125 4.5H1.5V10ZM6.28125 2.76479C6.42708 2.62188 6.5 2.44479 6.5 2.23354C6.5 2.02229 6.42854 1.84375 6.28562 1.69792C6.14271 1.55208 5.96562 1.47917 5.75437 1.47917C5.54313 1.47917 5.36458 1.55062 5.21875 1.69354C5.07292 1.83646 5 2.01354 5 2.22479C5 2.43604 5.07146 2.61458 5.21438 2.76042C5.35729 2.90625 5.53438 2.97917 5.74563 2.97917C5.95688 2.97917 6.13542 2.90771 6.28125 2.76479ZM10.2456 2.97917C10.4569 2.97917 10.6354 2.90771 10.7812 2.76479C10.9271 2.62188 11 2.44479 11 2.23354C11 2.02229 10.9285 1.84375 10.7856 1.69792C10.6427 1.55208 10.4656 1.47917 10.2544 1.47917C10.0431 1.47917 9.86458 1.55062 9.71875 1.69354C9.57292 1.83646 9.5 2.01354 9.5 2.22479C9.5 2.43604 9.57146 2.61458 9.71437 2.76042C9.85729 2.90625 10.0344 2.97917 10.2456 2.97917Z" fill="#03369C"/>
</g>
</svg>
